<?xml version="1.0" encoding="UTF-8" standalone="no"?>
<!-- Created with Inkscape (http://www.inkscape.org/) -->

<svg
   width="512"
   height="512"
   viewBox="0 0 512 512"
   version="1.1"
   id="svg5"
   inkscape:version="1.1.2 (0a00cf5339, 2022-02-04)"
   sodipodi:docname="intellicute_512.svg"
   inkscape:export-filename="/home/alexander/projects/machinekoder/CuteChatGPT/icons/intellicute_32.png"
   inkscape:export-xdpi="6"
   inkscape:export-ydpi="6"
   xmlns:inkscape="http://www.inkscape.org/namespaces/inkscape"
   xmlns:sodipodi="http://sodipodi.sourceforge.net/DTD/sodipodi-0.dtd"
   xmlns="http://www.w3.org/2000/svg"
   xmlns:svg="http://www.w3.org/2000/svg">
  <sodipodi:namedview
     id="namedview7"
     pagecolor="#ffffff"
     bordercolor="#999999"
     borderopacity="1"
     inkscape:pageshadow="0"
     inkscape:pageopacity="0"
     inkscape:pagecheckerboard="true"
     inkscape:document-units="px"
     showgrid="false"
     inkscape:zoom="1.2056723"
     inkscape:cx="402.26519"
     inkscape:cy="379.45634"
     inkscape:window-width="3400"
     inkscape:window-height="1409"
     inkscape:window-x="1080"
     inkscape:window-y="240"
     inkscape:window-maximized="1"
     inkscape:current-layer="layer1" />
  <defs
     id="defs2" />
  <g
     inkscape:label="Layer 1"
     inkscape:groupmode="layer"
     id="layer1">
    <g
       id="g962"
       transform="matrix(1.4562166,0,0,1.4562166,-156.20352,-108.73534)">
      <path
         style="fill:#29acac;stroke-width:0.463304"
         d="m 225.81095,416.79656 c -7.09519,-1.73721 -11.68939,-3.95449 -16.20263,-7.81981 -4.23147,-3.624 -6.19173,-6.40169 -9.05675,-12.83343 -0.22701,-0.50963 -1.07521,-3.21996 -1.88488,-6.02294 -0.80968,-2.80299 -1.78126,-5.7218 -2.15908,-6.48625 -2.31186,-4.67767 -5.6132,-9.74577 -8.00871,-12.29469 -1.52004,-1.61738 -2.76371,-3.07309 -2.76371,-3.23489 0,-0.89677 -16.01878,-13.27713 -19.46985,-15.04759 -0.88575,-0.4544 -2.19375,-1.31298 -2.90666,-1.90796 -0.7129,-0.59497 -3.1105,-1.96014 -5.32799,-3.0337 -2.21749,-1.07356 -4.86574,-2.47311 -5.88501,-3.11012 -2.00699,-1.25429 -5.4,-2.96276 -9.62252,-4.84518 -3.32747,-1.4834 -7.42388,-5.37169 -8.64175,-8.20271 -1.16387,-2.70549 -1.70669,-6.25248 -2.33695,-15.27052 -0.27604,-3.94967 -0.80623,-11.03821 -1.17821,-15.75232 -0.37197,-4.71412 -0.89652,-13.15782 -1.16565,-18.7638 -0.26913,-5.60597 -0.67718,-11.86057 -0.90678,-13.8991 -0.2296,-2.03854 -0.54368,-5.99978 -0.69795,-8.80277 -0.15427,-2.80299 -0.58375,-9.68304 -0.95438,-15.28902 -0.37064,-5.60597 -1.18742,-18.32365 -1.81506,-28.26151 -0.62765,-9.93786 -1.38119,-21.73739 -1.67453,-26.22118 -0.59822,-9.14384 -0.40195,-10.82994 1.84311,-15.83376 3.25504,-7.25488 12.673,-12.99678 25.59848,-15.60676 2.8209,-0.56962 3.5293,-1.28926 5.95835,-6.0529 0.5818,-1.14097 2.23114,-3.63815 3.6652,-5.54928 1.43406,-1.91113 3.15259,-4.3216 3.81895,-5.3566 0.66636,-1.03501 1.9512,-2.66607 2.8552,-3.62459 0.904,-0.95853 2.20205,-2.5093 2.88456,-3.44617 0.68249,-0.93687 2.36396,-2.85007 3.73659,-4.25157 1.37262,-1.40149 3.29226,-3.38211 4.26584,-4.40138 9.425,-9.86719 25.06099,-20.91631 38.35329,-27.102208 2.77554,-1.291669 5.6719,-2.677468 6.43635,-3.079553 0.76445,-0.402085 2.22386,-1.00294 3.24313,-1.335233 1.01926,-0.332294 3.5211,-1.252047 5.55964,-2.043897 2.03853,-0.79185 4.43613,-1.620443 5.32799,-1.841317 0.89186,-0.220875 4.06877,-1.039304 7.0598,-1.818732 9.49452,-2.474167 16.51996,-3.45995 33.94256,-4.762696 5.84096,-0.436748 8.20597,-0.396705 14.82572,0.251019 14.10698,1.380327 17.00888,1.717269 18.00964,2.091115 0.54219,0.202541 2.23672,0.516705 3.76562,0.698144 5.12402,0.608078 21.25582,5.196283 24.32344,6.918066 0.63704,0.357558 3.03464,1.422578 5.32799,2.366711 5.97822,2.461128 11.46847,5.133141 13.85074,6.740911 1.13398,0.76532 2.75544,1.7022 3.60325,2.08197 0.84779,0.37976 2.68813,1.52067 4.08962,2.53534 1.4015,1.01468 3.46548,2.42005 4.58665,3.12306 1.12116,0.70301 3.10179,2.23998 4.40139,3.4155 1.29959,1.17551 3.23329,2.67976 4.2971,3.34276 2.56443,1.59825 18.23734,17.22952 19.87236,19.81955 0.70605,1.11846 2.21196,2.96179 3.34647,4.0963 1.13451,1.13451 2.42532,2.9086 2.86847,3.94243 0.44315,1.03382 1.30858,2.50357 1.92317,3.26611 1.89789,2.35474 5.03475,7.06818 5.03475,7.56522 0,1.06961 2.51657,2.3423 5.68726,2.8762 3.99807,0.67321 10.02463,2.92266 14.40672,5.37738 3.85572,2.15987 7.68261,6.15621 9.62818,10.05449 2.25183,4.51193 2.26487,7.17288 0.18772,38.29077 -0.38271,5.73338 -0.91865,13.44739 -1.19098,17.14223 -0.27233,3.69485 -0.79635,11.30461 -1.16449,16.91058 -0.65702,10.0049 -2.06883,29.10149 -2.99706,40.53906 -0.2585,3.18521 -0.678,9.23132 -0.93222,13.4358 -1.02303,16.91962 -2.17787,28.94202 -2.93725,30.57804 -2.43086,5.23709 -5.80915,7.85052 -16.98146,13.13674 -1.40149,0.66313 -3.5906,1.84422 -4.86468,2.62465 -1.27409,0.78043 -3.23469,1.85132 -4.3569,2.37975 -2.04281,0.96192 -13.08111,8.21076 -17.39565,11.4237 -1.2616,0.93948 -4.28465,3.71072 -6.7179,6.15832 -9.91289,9.97133 -11.41982,12.55281 -15.79297,27.05447 -1.46075,4.84396 -5.16766,10.93469 -8.47852,13.93085 -3.84015,3.47513 -8.94768,6.56068 -12.68935,7.66586 -7.88792,2.32987 -5.13684,2.23298 -62.44049,2.19898 -49.11543,-0.0291 -54.02247,-0.10026 -56.98633,-0.82594 z m 113.97267,-14.24288 c 3.07689,-1.3243 5.77183,-2.89405 7.54425,-4.39438 1.71403,-1.4509 5.1173,-6.57032 5.4843,-8.24985 0.71394,-3.26724 3.43734,-12.14863 4.14475,-13.51661 0.44345,-0.85754 1.45181,-2.54384 2.24081,-3.74734 0.789,-1.2035 2.16425,-3.36616 3.05611,-4.8059 2.29438,-3.70388 17.04727,-18.48301 19.09774,-19.13172 0.32596,-0.10312 1.32236,-0.83785 2.21422,-1.63273 0.89186,-0.79487 2.60927,-2.06769 3.81646,-2.82848 1.20719,-0.76079 3.91752,-2.50816 6.02294,-3.88305 4.40168,-2.87439 5.48669,-3.47631 16.80055,-9.32015 4.58671,-2.36913 8.46849,-4.5039 8.6262,-4.74394 0.55642,-0.84696 1.32542,-8.56969 1.83353,-18.41364 0.28273,-5.47753 0.59679,-10.093 0.69789,-10.25659 0.10111,-0.1636 0.30877,-2.56205 0.46147,-5.32988 0.1527,-2.76784 0.58267,-8.47246 0.95549,-12.67694 0.37283,-4.20447 0.87208,-11.18878 1.10943,-15.52066 0.23736,-4.33189 0.63824,-9.75254 0.89086,-12.0459 0.25261,-2.29335 0.67802,-8.23522 0.94536,-13.20415 0.26733,-4.96893 0.78534,-12.68293 1.15112,-17.14223 0.36578,-4.45929 0.77792,-10.08843 0.91585,-12.50919 0.13794,-2.42076 0.57396,-9.30082 0.96894,-15.28902 0.85145,-12.90848 0.65961,-14.23338 -2.35781,-16.28345 -2.14841,-1.45965 -5.79015,-3.30442 -8.09051,-4.09835 -2.25481,-0.77821 -9.95119,-2.65326 -12.74085,-3.10402 -2.2044,-0.3562 -2.37258,-0.48823 -3.47478,-2.728 -0.63704,-1.29453 -1.62216,-2.98732 -2.18915,-3.76175 -0.56699,-0.77443 -1.23553,-1.94628 -1.48564,-2.60412 -0.25011,-0.65784 -1.57905,-2.71782 -2.95319,-4.57773 -1.37414,-1.8599 -2.83594,-4.03601 -3.24845,-4.8358 -0.4125,-0.79979 -1.49902,-2.15495 -2.41449,-3.01147 -0.91547,-0.85653 -2.37218,-2.71588 -3.23714,-4.13191 -0.86495,-1.41602 -2.1208,-2.86796 -2.79076,-3.22651 -0.66997,-0.35856 -1.6529,-1.28485 -2.18429,-2.05844 -1.35759,-1.97634 -9.12116,-9.45504 -10.64584,-10.25521 -0.69623,-0.36538 -1.73866,-1.3072 -2.31651,-2.09293 -0.57786,-0.78572 -1.8846,-1.84718 -2.90387,-2.35881 -1.01926,-0.51162 -2.47867,-1.49543 -3.24312,-2.18625 -1.62048,-1.46439 -7.2757,-5.13033 -7.91425,-5.13033 -0.24024,0 -1.93265,-1.01401 -3.76093,-2.25335 -1.82827,-1.23934 -5.36993,-3.14806 -7.87036,-4.2416 -2.50044,-1.09355 -4.96322,-2.24893 -5.47285,-2.56751 -1.09507,-0.68456 -5.90613,-2.55052 -9.49772,-3.68368 -1.4015,-0.44218 -3.48636,-1.17715 -4.63304,-1.63328 -4.20711,-1.67351 -16.91267,-4.013558 -26.4083,-4.863756 -8.72155,-0.78089 -18.07736,-0.847553 -25.63362,-0.182648 -5.4724,0.481539 -19.5868,2.578904 -20.29328,3.015534 -0.19241,0.11891 -1.5607,0.43946 -3.04064,0.71232 -2.65688,0.48984 -6.0906,1.56675 -12.42018,3.89528 -1.78372,0.6562 -3.86858,1.39119 -4.63303,1.63332 -2.43341,0.77075 -15.63537,7.47517 -18.81607,9.55547 -1.68506,1.10209 -3.28816,2.00381 -3.56243,2.00381 -0.27427,0 -1.42518,0.80188 -2.55757,1.78196 -1.13239,0.98008 -2.86509,2.27168 -3.85043,2.87024 -5.50136,3.3418 -23.52803,20.8558 -25.54283,24.81639 -0.37523,0.7376 -1.14202,1.86231 -1.70398,2.49935 -1.74465,1.97775 -4.32278,5.84527 -5.61424,8.42206 -0.67964,1.35606 -1.5768,2.84489 -1.99368,3.30849 -0.41688,0.4636 -1.48767,2.33548 -2.37953,4.15972 l -1.62156,3.31681 -4.50347,0.77743 c -4.6785,0.80765 -12.73371,3.32321 -16.1984,5.05861 -3.16564,1.58561 -4.93204,3.53056 -5.27331,5.80636 -0.16301,1.08699 0.13763,8.71551 0.66808,16.95225 0.53046,8.23675 1.18312,19.77109 1.45036,25.63188 0.26725,5.86079 0.68575,13.05358 0.93001,15.98397 0.91948,11.03101 1.85984,23.65285 2.31265,31.04134 0.59632,9.73001 2.17149,32.95431 2.82809,41.69732 1.01286,13.48687 0.82023,12.41995 2.46951,13.67791 0.81609,0.62247 3.13674,1.89213 5.15702,2.82147 2.02026,0.92935 4.24205,2.09063 4.9373,2.58063 0.69525,0.49 3.27836,1.91339 5.74024,3.16309 2.46189,1.24969 4.9161,2.67812 5.45381,3.17428 0.53771,0.49616 1.70737,1.20593 2.59922,1.57728 1.51201,0.62956 4.09654,2.37908 12.35139,8.36094 3.10281,2.24844 10.22198,8.52624 13.23374,11.66971 3.59187,3.74895 6.84612,7.6906 6.84612,8.29223 0,0.3691 0.53035,1.30138 1.17855,2.07172 1.70956,2.03169 5.2505,9.47854 6.06716,12.75968 1.77952,7.1496 2.62102,9.32485 4.60455,11.9026 1.11247,1.44574 2.60888,3.1212 3.32535,3.72324 2.059,1.73018 6.5676,3.7298 10.30609,4.57088 0.89186,0.20065 25.49327,0.3333 54.66981,0.29477 l 53.04826,-0.07 z m -63.47259,-33.99741 c -6.07432,-0.44725 -14.64383,-2.12489 -22.10917,-4.32829 -14.00116,-4.13244 -30.67007,-14.60186 -31.64996,-19.87873 -0.70553,-3.79937 1.94427,-6.81382 5.98954,-6.81382 1.42154,0 2.3836,0.42814 4.40861,1.96193 6.77502,5.13159 13.10534,8.67499 21.69346,12.14293 11.07,4.47015 26.18728,6.34285 37.88315,4.69289 6.01173,-0.84808 14.30622,-2.67599 16.91057,-3.72668 6.44606,-2.60059 13.10283,-5.68072 15.05737,-6.96713 5.85195,-3.85159 7.56485,-5.00337 9.66591,-6.49954 3.93421,-2.80157 7.46774,-2.02671 9.30142,2.03967 1.25489,2.78286 0.7267,3.95368 -3.73139,8.27125 -3.06115,2.96466 -5.29627,4.58348 -10.09706,7.31294 -3.39111,1.92799 -7.28978,3.9353 -8.66373,4.46069 -15.6635,5.98958 -30.28561,8.39018 -44.65872,7.33189 z m -79.91986,-73.9362 c -7.13214,-0.64346 -18.39392,-5.19749 -22.8701,-9.24821 -1.52322,-1.37844 -2.93151,-2.50625 -3.12952,-2.50625 -0.71745,0 -6.97191,-7.66333 -8.1137,-9.94137 -0.64402,-1.2849 -1.4415,-2.6489 -1.77221,-3.03113 -1.21952,-1.40953 -2.65018,-5.4702 -3.77953,-10.72748 -1.96601,-9.15203 -1.1674,-19.24901 2.16085,-27.32009 0.7316,-1.77415 1.76146,-3.77401 2.28858,-4.44413 0.52712,-0.67012 1.3554,-2.06857 1.84062,-3.10766 1.01327,-2.1699 7.73379,-9.18742 11.90529,-12.43142 1.55786,-1.21148 3.66253,-2.49556 4.67705,-2.8535 1.01451,-0.35794 2.23696,-0.86876 2.71655,-1.13514 10.1942,-5.66232 26.71416,-5.48011 38.74142,0.42732 11.63192,5.71323 20.67942,16.56704 24.30788,29.16085 1.5174,5.26665 1.94395,14.35156 0.92625,19.72772 -1.22875,6.49111 -5.57756,16.1604 -8.83908,19.65308 -0.83283,0.89186 -1.86204,2.18433 -2.28713,2.87216 -0.88012,1.42408 -6.30779,5.96682 -9.51774,7.96596 -3.60255,2.24366 -6.10115,3.3679 -11.27845,5.07474 -4.23055,1.39472 -5.75734,1.6647 -10.42433,1.84335 -3.00731,0.11511 -6.40602,0.12466 -7.5527,0.0212 z m 33.67379,-39.61995 c 3.8822,-2.35934 5.55767,-8.16615 3.52242,-12.20801 -1.7094,-3.39475 -4.50424,-5.33025 -7.69685,-5.33025 -3.84934,0 -6.21261,1.5961 -8.18872,5.53044 -1.25212,2.49291 -1.04092,5.80656 0.56139,8.80844 2.23556,4.18825 7.72563,5.67657 11.80176,3.19938 z m -45.3245,-7.78203 c 3.79707,-1.49666 15.05957,-9.08836 19.17939,-12.92822 l 2.2007,-2.05114 v -6.85881 c 0,-4.93762 -0.16005,-6.95773 -0.57137,-7.21194 -1.25344,-0.77467 -8.6049,-0.74116 -12.18592,0.0555 -8.6286,1.91968 -14.50482,6.02024 -19.54342,13.63781 -3.19911,4.83657 -3.53538,6.70021 -1.86662,10.34525 1.21434,2.65248 2.98466,4.2472 5.85256,5.27208 2.37284,0.84796 4.30666,0.7753 6.93468,-0.26057 z m 173.02383,47.23198 c -1.57738,-0.22163 -3.24528,-0.598 -3.70643,-0.83639 -0.46114,-0.23839 -1.6199,-0.57449 -2.57503,-0.7469 -3.40173,-0.61407 -14.71069,-6.4988 -14.71069,-7.65487 0,-0.22277 -0.90243,-0.9339 -2.00541,-1.58028 -1.10297,-0.64639 -2.56534,-2.02136 -3.2497,-3.0555 -0.68435,-1.03414 -1.42446,-1.88025 -1.64469,-1.88025 -1.15508,0 -6.93937,-10.12174 -8.6825,-15.19322 -2.74956,-7.9996 -2.57024,-22.3502 0.3644,-29.16293 2.24197,-5.20468 3.79753,-8.32428 4.83865,-9.70363 0.61225,-0.81115 1.11318,-1.67268 1.11318,-1.9145 0,-0.54818 5.92732,-6.54047 9.29877,-9.4007 4.74218,-4.02311 12.64976,-7.64736 19.1944,-8.7973 8.75583,-1.53846 20.02692,-0.42915 26.17665,2.57632 6.17289,3.01679 9.53758,4.99745 10.91273,6.42392 0.77826,0.80729 2.28108,2.24998 3.33962,3.20597 6.95453,6.28086 12.41695,16.92992 13.60512,26.52335 0.6781,5.47511 0.21729,13.60769 -0.98416,17.36852 -0.51057,1.59824 -0.92831,3.1108 -0.92831,3.36123 0,1.18522 -5.0467,10.44345 -6.72697,12.34072 -1.04267,1.17733 -2.33838,2.76606 -2.87934,3.53051 -0.54097,0.76445 -1.88451,2.0737 -2.98566,2.90945 -1.10115,0.83575 -3.35348,2.57316 -5.00517,3.86092 -2.99307,2.33359 -3.7744,2.75526 -9.04282,4.88026 -6.99916,2.8231 -16.33483,3.98247 -23.71664,2.9453 z m 36.03715,-39.53103 c 6.5198,-3.43237 5.39268,-14.14896 -1.78572,-16.97842 -2.00472,-0.79019 -5.8735,-0.38837 -7.442,0.77293 -1.94201,1.43785 -3.88928,4.66233 -4.13567,6.84822 -0.40903,3.62896 1.95636,8.57673 4.6631,9.75396 2.36915,1.0304 6.33279,0.84968 8.70029,-0.39669 z m -46.79989,-7.20892 c 0.91207,-0.21209 3.16843,-1.30168 5.01416,-2.4213 1.84572,-1.11961 4.2826,-2.57169 5.4153,-3.22683 1.13269,-0.65514 2.73333,-1.8306 3.55696,-2.61212 0.82364,-0.78154 2.12298,-1.73704 2.88743,-2.12334 0.76445,-0.38631 2.41587,-1.71268 3.66982,-2.94751 2.68047,-2.6396 2.87713,-3.41118 2.67062,-10.47775 -0.14057,-4.81006 -0.18982,-5.01831 -1.36962,-5.79129 -0.91739,-0.60106 -2.1569,-0.79387 -4.95053,-0.77005 -7.54985,0.0644 -16.27453,3.33014 -20.58578,7.70555 -4.65422,4.72351 -5.47114,5.72352 -7.43124,9.09692 -2.46921,4.24959 -2.35262,5.24121 1.10619,9.40824 3.54341,4.26896 5.69814,5.16372 10.01669,4.15948 z M 270.0048,220.84714 c -6.89902,-2.49217 -12.00515,-8.84688 -13.40568,-16.68373 -0.51768,-2.89678 -0.48859,-3.64372 0.24995,-6.41773 0.4597,-1.72667 1.52539,-4.52329 2.3682,-6.21471 1.99635,-4.00644 6.06185,-7.46292 11.09611,-9.43388 l 3.55013,-1.38991 -0.24224,-2.77982 c -0.40378,-4.63348 -1.71348,-7.63208 -5.29514,-12.12342 -2.68539,-3.36743 -3.89576,-4.46169 -6.7267,-6.08143 -7.00042,-4.00534 -14.87803,-4.93686 -22.38519,-2.64704 -2.08272,0.63527 -4.01174,1.42612 -4.28672,1.75745 -0.36677,0.44193 -0.19477,1.44326 0.64557,3.75835 4.48862,12.36601 -1.31382,24.56887 -13.61158,28.62593 -5.26365,1.73649 -12.06028,0.52367 -17.23087,-3.07473 -3.50777,-2.44117 -4.26015,-3.24434 -6.24135,-6.66259 -2.69148,-4.64372 -3.39545,-8.29695 -2.65919,-13.79968 0.45793,-3.42254 0.82211,-4.41648 2.83153,-7.72791 2.49364,-4.1094 5.65692,-6.98371 9.65619,-8.77409 2.66586,-1.19343 8.80572,-1.61394 12.77729,-0.87509 l 2.69703,0.50175 3.72633,-2.1144 c 5.33394,-3.02659 7.1957,-3.7374 11.92814,-4.55408 9.78461,-1.68855 17.58727,-0.55949 26.63046,3.85347 5.25261,2.5632 5.87877,3.01972 10.06865,7.34067 3.65042,3.76462 4.807,5.32064 6.32238,8.50583 1.02007,2.14408 2.08477,4.7844 2.36601,5.86737 0.28124,1.08297 0.71983,2.77505 0.97464,3.76018 0.25482,0.98513 0.46331,3.33149 0.46331,5.21414 v 3.42299 l 3.49991,3.0095 c 3.03438,2.60921 3.78497,3.58047 5.64306,7.3021 1.92075,3.84712 2.16426,4.69454 2.34645,8.16568 0.22155,4.22126 -0.1034,5.63666 -2.40284,10.46626 -3.27784,6.88454 -10.31877,11.16056 -18.28121,11.10235 -2.65633,-0.0194 -4.43114,-0.34559 -7.07263,-1.29978 z m 12.06737,-12.49501 c 2.40806,-1.94615 3.47184,-4.02855 3.47184,-6.79629 0,-2.90293 -1.13927,-4.9932 -3.84718,-7.05859 -3.11834,-2.37844 -7.06557,-2.03678 -10.08247,0.8727 -3.31106,3.19318 -3.70216,7.09595 -1.11925,11.16879 0.98661,1.55571 1.84244,2.28087 3.33959,2.82971 2.90716,1.06573 6.15744,0.66472 8.23747,-1.01632 z m -62.66181,-29.29737 c 6.29044,-2.38338 7.10678,-12.23092 1.29481,-15.61921 -1.52771,-0.89062 -2.32744,-1.04139 -4.66521,-0.87953 -3.42529,0.23717 -4.77674,1.06022 -6.72424,4.09512 -2.19025,3.41322 -2.11066,5.51642 0.34099,9.01069 2.04334,2.9123 3.6163,3.81306 6.74218,3.86094 0.93898,0.0144 2.29414,-0.19623 3.01147,-0.46801 z m 96.39792,21.53008 c -12.88728,-2.3049 -19.90171,-14.20462 -15.87913,-26.93834 0.77577,-2.45574 1.59901,-4.06593 2.53942,-4.9669 0.76534,-0.73324 1.96631,-2.16259 2.66883,-3.17632 1.00123,-1.44477 2.27103,-2.32911 5.8748,-4.09144 2.52862,-1.23655 5.17526,-2.24827 5.88142,-2.24827 0.82697,0 1.36519,-0.28857 1.51223,-0.81079 0.69027,-2.45162 0.74959,-4.12412 0.31114,-8.77345 -0.56454,-5.98648 -1.96216,-9.8779 -5.29684,-14.74807 -1.17133,-1.71069 -2.1297,-3.26133 -2.1297,-3.44587 0,-0.53012 -7.36397,-6.55453 -8.97284,-7.34062 -0.79832,-0.39005 -1.93795,-1.08314 -2.53251,-1.54019 -2.03376,-1.56341 -8.18264,-3.56808 -13.39639,-4.36754 -2.86624,-0.4395 -5.57657,-1.0674 -6.02295,-1.39534 -0.67733,-0.49762 -0.80496,-1.30416 -0.77146,-4.87519 0.0386,-4.11724 0.0905,-4.32226 1.37333,-5.42568 1.28344,-1.10397 1.50248,-1.13566 5.87132,-0.84935 2.49597,0.16357 6.15195,0.73208 8.12439,1.26337 4.34595,1.17059 12.20192,4.9222 15.50613,7.40493 2.22601,1.6726 2.65283,1.81656 5.38576,1.81656 3.56897,0 12.27355,1.88226 16.34911,3.5353 3.83094,1.55383 11.42744,5.59628 12.90727,6.86858 0.63704,0.54769 1.9922,1.55148 3.01147,2.23063 2.699,1.79836 8.23494,7.52427 10.63206,10.99689 2.79653,4.05125 5.98466,10.70497 7.19352,15.0131 1.22464,4.36434 1.75741,12.38486 0.97929,14.74258 -1.16857,3.54081 -5.44533,5.25278 -9.09224,3.63958 -2.64666,-1.17075 -3.24514,-2.52857 -3.69355,-8.37979 -1.03809,-13.54585 -8.97736,-24.74243 -21.87411,-30.84857 -2.91493,-1.3801 -5.49157,-2.50929 -5.72588,-2.50929 -0.77413,0 -0.44458,1.17922 0.9395,3.36169 2.48144,3.91282 3.75063,9.04005 4.05462,16.37976 0.22072,5.32898 0.13231,6.94365 -0.47834,8.73578 l -0.7491,2.19849 3.53965,3.53965 c 4.02118,4.02118 4.85694,5.61571 5.90116,11.25874 0.70909,3.83194 0.70059,4.18493 -0.19286,8.01671 -2.60337,11.16512 -12.52473,17.73605 -23.74852,15.72867 z m 8.59359,-13.28928 c 1.92644,-1.46936 3.57149,-4.63728 3.55733,-6.85048 -0.0228,-3.5729 -3.41442,-7.95341 -6.62405,-8.55554 -3.24673,-0.60909 -7.64087,1.49978 -9.18684,4.40903 -1.61946,3.04752 -0.89749,7.83909 1.51477,10.0533 2.10311,1.93044 3.73615,2.51942 6.50066,2.34454 1.95403,-0.1236 3.02975,-0.47916 4.23813,-1.40085 z M 289.05188,160.4268 c -0.6623,-0.32953 -1.68653,-1.66571 -2.39196,-3.12047 -0.67853,-1.39928 -2.41075,-4.97213 -3.84937,-7.93966 -2.38339,-4.91637 -2.96789,-5.73075 -6.5821,-9.17077 -7.00153,-6.66407 -17.01781,-10.67358 -26.68128,-10.68051 -12.43572,-0.009 -25.03228,5.45643 -33.60697,14.58129 -3.36081,3.57644 -3.6725,3.61223 -7.77031,0.89226 -2.35986,-1.56638 -3.90594,-3.78104 -3.8995,-5.58579 0.009,-2.56574 6.18179,-8.40225 13.63887,-12.89616 10.81894,-6.51988 19.4019,-9.04261 30.89753,-9.08149 9.78133,-0.0331 15.70733,1.27677 24.26112,5.36252 6.28335,3.00128 11.42883,6.99713 15.81785,12.28376 3.9741,4.78687 5.03154,6.48841 7.23126,11.63587 3.60839,8.44384 3.33079,10.76337 -1.60287,13.39296 -1.9665,1.04812 -3.79224,1.15715 -5.46227,0.32619 z"
         id="path968" />
      <path
         style="fill:#3c7bb6;stroke-width:0.463304"
         d="m 225.81095,416.79656 c -7.09519,-1.73721 -11.68939,-3.95449 -16.20263,-7.81981 -4.23147,-3.624 -6.19173,-6.40169 -9.05675,-12.83343 -0.22701,-0.50963 -1.07521,-3.21996 -1.88488,-6.02294 -0.80968,-2.80299 -1.78126,-5.7218 -2.15908,-6.48625 -2.31186,-4.67767 -5.6132,-9.74577 -8.00871,-12.29469 -1.52004,-1.61738 -2.76371,-3.07309 -2.76371,-3.23489 0,-0.89677 -16.01878,-13.27713 -19.46985,-15.04759 -0.88575,-0.4544 -2.19375,-1.31298 -2.90666,-1.90796 -0.7129,-0.59497 -3.1105,-1.96014 -5.32799,-3.0337 -2.21749,-1.07356 -4.86574,-2.47311 -5.88501,-3.11012 -2.00699,-1.25429 -5.4,-2.96276 -9.62252,-4.84518 -3.32747,-1.4834 -7.42388,-5.37169 -8.64175,-8.20271 -1.16387,-2.70549 -1.70669,-6.25248 -2.33695,-15.27052 -0.27604,-3.94967 -0.80623,-11.03821 -1.17821,-15.75232 -0.37197,-4.71412 -0.89652,-13.15782 -1.16565,-18.7638 -0.26913,-5.60597 -0.67718,-11.86057 -0.90678,-13.8991 -0.2296,-2.03854 -0.54368,-5.99978 -0.69795,-8.80277 -0.15427,-2.80299 -0.58375,-9.68304 -0.95438,-15.28902 -0.37064,-5.60597 -1.18742,-18.32365 -1.81506,-28.26151 -0.62765,-9.93786 -1.38119,-21.73739 -1.67453,-26.22118 -0.59822,-9.14384 -0.40195,-10.82994 1.84311,-15.83376 3.25504,-7.25488 12.673,-12.99678 25.59848,-15.60676 2.8209,-0.56962 3.5293,-1.28926 5.95835,-6.0529 0.5818,-1.14097 2.23114,-3.63815 3.6652,-5.54928 1.43406,-1.91113 3.15259,-4.3216 3.81895,-5.3566 0.66636,-1.03501 1.9512,-2.66607 2.8552,-3.62459 0.904,-0.95853 2.20205,-2.5093 2.88456,-3.44617 0.68249,-0.93687 2.36396,-2.85007 3.73659,-4.25157 1.37262,-1.40149 3.29226,-3.38211 4.26584,-4.40138 9.425,-9.86719 25.06099,-20.91631 38.35329,-27.102208 2.77554,-1.291669 5.6719,-2.677468 6.43635,-3.079553 0.76445,-0.402085 2.22386,-1.00294 3.24313,-1.335233 1.01926,-0.332294 3.5211,-1.252047 5.55964,-2.043897 2.03853,-0.79185 4.43613,-1.620443 5.32799,-1.841317 0.89186,-0.220875 4.06877,-1.039304 7.0598,-1.818732 9.49452,-2.474167 16.51996,-3.45995 33.94256,-4.762696 5.84096,-0.436748 8.20597,-0.396705 14.82572,0.251019 14.10698,1.380327 17.00888,1.717269 18.00964,2.091115 0.54219,0.202541 2.23672,0.516705 3.76562,0.698144 5.12402,0.608078 21.25582,5.196283 24.32344,6.918066 0.63704,0.357558 3.03464,1.422578 5.32799,2.366711 5.97822,2.461128 11.46847,5.133141 13.85074,6.740911 1.13398,0.76532 2.75544,1.7022 3.60325,2.08197 0.84779,0.37976 2.68813,1.52067 4.08962,2.53534 1.4015,1.01468 3.46548,2.42005 4.58665,3.12306 1.12116,0.70301 3.10179,2.23998 4.40139,3.4155 1.29959,1.17551 3.23329,2.67976 4.2971,3.34276 2.56443,1.59825 18.23734,17.22952 19.87236,19.81955 0.70605,1.11846 2.21196,2.96179 3.34647,4.0963 1.13451,1.13451 2.42532,2.9086 2.86847,3.94243 0.44315,1.03382 1.30858,2.50357 1.92317,3.26611 1.89789,2.35474 5.03475,7.06818 5.03475,7.56522 0,1.06961 2.51657,2.3423 5.68726,2.8762 3.99807,0.67321 10.02463,2.92266 14.40672,5.37738 3.85572,2.15987 7.68261,6.15621 9.62818,10.05449 2.25183,4.51193 2.26487,7.17288 0.18772,38.29077 -0.38271,5.73338 -0.91865,13.44739 -1.19098,17.14223 -0.27233,3.69485 -0.79635,11.30461 -1.16449,16.91058 -0.65702,10.0049 -2.06883,29.10149 -2.99706,40.53906 -0.2585,3.18521 -0.678,9.23132 -0.93222,13.4358 -1.02303,16.91962 -2.17787,28.94202 -2.93725,30.57804 -2.43086,5.23709 -5.80915,7.85052 -16.98146,13.13674 -1.40149,0.66313 -3.5906,1.84422 -4.86468,2.62465 -1.27409,0.78043 -3.23469,1.85132 -4.3569,2.37975 -2.04281,0.96192 -13.08111,8.21076 -17.39565,11.4237 -1.2616,0.93948 -4.28465,3.71072 -6.7179,6.15832 -9.91289,9.97133 -11.41982,12.55281 -15.79297,27.05447 -1.46075,4.84396 -5.16766,10.93469 -8.47852,13.93085 -3.84015,3.47513 -8.94768,6.56068 -12.68935,7.66586 -7.88792,2.32987 -5.13684,2.23298 -62.44049,2.19898 -49.11543,-0.0291 -54.02247,-0.10026 -56.98633,-0.82594 z m 113.97267,-14.24288 c 3.07689,-1.3243 5.77183,-2.89405 7.54425,-4.39438 1.71403,-1.4509 5.1173,-6.57032 5.4843,-8.24985 0.71394,-3.26724 3.43734,-12.14863 4.14475,-13.51661 0.44345,-0.85754 1.45181,-2.54384 2.24081,-3.74734 0.789,-1.2035 2.16425,-3.36616 3.05611,-4.8059 2.29438,-3.70388 17.04727,-18.48301 19.09774,-19.13172 0.32596,-0.10312 1.32236,-0.83785 2.21422,-1.63273 0.89186,-0.79487 2.60927,-2.06769 3.81646,-2.82848 1.20719,-0.76079 3.91752,-2.50816 6.02294,-3.88305 4.40168,-2.87439 5.48669,-3.47631 16.80055,-9.32015 4.58671,-2.36913 8.46849,-4.5039 8.6262,-4.74394 0.55642,-0.84696 1.32542,-8.56969 1.83353,-18.41364 0.28273,-5.47753 0.59679,-10.093 0.69789,-10.25659 0.10111,-0.1636 0.30877,-2.56205 0.46147,-5.32988 0.1527,-2.76784 0.58267,-8.47246 0.95549,-12.67694 0.37283,-4.20447 0.87208,-11.18878 1.10943,-15.52066 0.23736,-4.33189 0.63824,-9.75254 0.89086,-12.0459 0.25261,-2.29335 0.67802,-8.23522 0.94536,-13.20415 0.26733,-4.96893 0.78534,-12.68293 1.15112,-17.14223 0.36578,-4.45929 0.77792,-10.08843 0.91585,-12.50919 0.13794,-2.42076 0.57396,-9.30082 0.96894,-15.28902 0.85145,-12.90848 0.65961,-14.23338 -2.35781,-16.28345 -2.14841,-1.45965 -5.79015,-3.30442 -8.09051,-4.09835 -2.25481,-0.77821 -9.95119,-2.65326 -12.74085,-3.10402 -2.2044,-0.3562 -2.37258,-0.48823 -3.47478,-2.728 -0.63704,-1.29453 -1.62216,-2.98732 -2.18915,-3.76175 -0.56699,-0.77443 -1.23553,-1.94628 -1.48564,-2.60412 -0.25011,-0.65784 -1.57905,-2.71782 -2.95319,-4.57773 -1.37414,-1.8599 -2.83594,-4.03601 -3.24845,-4.8358 -0.4125,-0.79979 -1.49902,-2.15495 -2.41449,-3.01147 -0.91547,-0.85653 -2.37218,-2.71588 -3.23714,-4.13191 -0.86495,-1.41602 -2.1208,-2.86796 -2.79076,-3.22651 -0.66997,-0.35856 -1.6529,-1.28485 -2.18429,-2.05844 -1.35759,-1.97634 -9.12116,-9.45504 -10.64584,-10.25521 -0.69623,-0.36538 -1.73866,-1.3072 -2.31651,-2.09293 -0.57786,-0.78572 -1.8846,-1.84718 -2.90387,-2.35881 -1.01926,-0.51162 -2.47867,-1.49543 -3.24312,-2.18625 -1.62048,-1.46439 -7.2757,-5.13033 -7.91425,-5.13033 -0.24024,0 -1.93265,-1.01401 -3.76093,-2.25335 -1.82827,-1.23934 -5.36993,-3.14806 -7.87036,-4.2416 -2.50044,-1.09355 -4.96322,-2.24893 -5.47285,-2.56751 -1.09507,-0.68456 -5.90613,-2.55052 -9.49772,-3.68368 -1.4015,-0.44218 -3.48636,-1.17715 -4.63304,-1.63328 -4.20711,-1.67351 -16.91267,-4.013558 -26.4083,-4.863756 -8.72155,-0.78089 -18.07736,-0.847553 -25.63362,-0.182648 -5.4724,0.481539 -19.5868,2.578904 -20.29328,3.015534 -0.19241,0.11891 -1.5607,0.43946 -3.04064,0.71232 -2.65688,0.48984 -6.0906,1.56675 -12.42018,3.89528 -1.78372,0.6562 -3.86858,1.39119 -4.63303,1.63332 -2.43341,0.77075 -15.63537,7.47517 -18.81607,9.55547 -1.68506,1.10209 -3.28816,2.00381 -3.56243,2.00381 -0.27427,0 -1.42518,0.80188 -2.55757,1.78196 -1.13239,0.98008 -2.86509,2.27168 -3.85043,2.87024 -5.50136,3.3418 -23.52803,20.8558 -25.54283,24.81639 -0.37523,0.7376 -1.14202,1.86231 -1.70398,2.49935 -1.74465,1.97775 -4.32278,5.84527 -5.61424,8.42206 -0.67964,1.35606 -1.5768,2.84489 -1.99368,3.30849 -0.41688,0.4636 -1.48767,2.33548 -2.37953,4.15972 l -1.62156,3.31681 -4.50347,0.77743 c -4.6785,0.80765 -12.73371,3.32321 -16.1984,5.05861 -3.16564,1.58561 -4.93204,3.53056 -5.27331,5.80636 -0.16301,1.08699 0.13763,8.71551 0.66808,16.95225 0.53046,8.23675 1.18312,19.77109 1.45036,25.63188 0.26725,5.86079 0.68575,13.05358 0.93001,15.98397 0.91948,11.03101 1.85984,23.65285 2.31265,31.04134 0.59632,9.73001 2.17149,32.95431 2.82809,41.69732 1.01286,13.48687 0.82023,12.41995 2.46951,13.67791 0.81609,0.62247 3.13674,1.89213 5.15702,2.82147 2.02026,0.92935 4.24205,2.09063 4.9373,2.58063 0.69525,0.49 3.27836,1.91339 5.74024,3.16309 2.46189,1.24969 4.9161,2.67812 5.45381,3.17428 0.53771,0.49616 1.70737,1.20593 2.59922,1.57728 1.51201,0.62956 4.09654,2.37908 12.35139,8.36094 3.10281,2.24844 10.22198,8.52624 13.23374,11.66971 3.59187,3.74895 6.84612,7.6906 6.84612,8.29223 0,0.3691 0.53035,1.30138 1.17855,2.07172 1.70956,2.03169 5.2505,9.47854 6.06716,12.75968 1.77952,7.1496 2.62102,9.32485 4.60455,11.9026 1.11247,1.44574 2.60888,3.1212 3.32535,3.72324 2.059,1.73018 6.5676,3.7298 10.30609,4.57088 0.89186,0.20065 25.49327,0.3333 54.66981,0.29477 l 53.04826,-0.07 z m -63.47259,-33.99741 c -6.07432,-0.44725 -14.64383,-2.12489 -22.10917,-4.32829 -14.00116,-4.13244 -30.67007,-14.60186 -31.64996,-19.87873 -0.70553,-3.79937 1.94427,-6.81382 5.98954,-6.81382 1.42154,0 2.3836,0.42814 4.40861,1.96193 6.77502,5.13159 13.10534,8.67499 21.69346,12.14293 11.07,4.47015 26.18728,6.34285 37.88315,4.69289 6.01173,-0.84808 14.30622,-2.67599 16.91057,-3.72668 6.44606,-2.60059 13.10283,-5.68072 15.05737,-6.96713 5.85195,-3.85159 7.56485,-5.00337 9.66591,-6.49954 3.93421,-2.80157 7.46774,-2.02671 9.30142,2.03967 1.25489,2.78286 0.7267,3.95368 -3.73139,8.27125 -3.06115,2.96466 -5.29627,4.58348 -10.09706,7.31294 -3.39111,1.92799 -7.28978,3.9353 -8.66373,4.46069 -15.6635,5.98958 -30.28561,8.39018 -44.65872,7.33189 z m -79.91986,-73.9362 c -7.13214,-0.64346 -18.39392,-5.19749 -22.8701,-9.24821 -1.52322,-1.37844 -2.93151,-2.50625 -3.12952,-2.50625 -0.71745,0 -6.97191,-7.66333 -8.1137,-9.94137 -0.64402,-1.2849 -1.4415,-2.6489 -1.77221,-3.03113 -1.21952,-1.40953 -2.65018,-5.4702 -3.77953,-10.72748 -1.96601,-9.15203 -1.1674,-19.24901 2.16085,-27.32009 0.7316,-1.77415 1.76146,-3.77401 2.28858,-4.44413 0.52712,-0.67012 1.3554,-2.06857 1.84062,-3.10766 1.01327,-2.1699 7.73379,-9.18742 11.90529,-12.43142 1.55786,-1.21148 3.66253,-2.49556 4.67705,-2.8535 1.01451,-0.35794 2.23696,-0.86876 2.71655,-1.13514 10.1942,-5.66232 26.71416,-5.48011 38.74142,0.42732 11.63192,5.71323 20.67942,16.56704 24.30788,29.16085 1.5174,5.26665 1.94395,14.35156 0.92625,19.72772 -1.22875,6.49111 -5.57756,16.1604 -8.83908,19.65308 -0.83283,0.89186 -1.86204,2.18433 -2.28713,2.87216 -0.88012,1.42408 -6.30779,5.96682 -9.51774,7.96596 -3.60255,2.24366 -6.10115,3.3679 -11.27845,5.07474 -4.23055,1.39472 -5.75734,1.6647 -10.42433,1.84335 -3.00731,0.11511 -6.40602,0.12466 -7.5527,0.0212 z m 33.67379,-39.61995 c 3.8822,-2.35934 5.55767,-8.16615 3.52242,-12.20801 -1.7094,-3.39475 -4.50424,-5.33025 -7.69685,-5.33025 -3.84934,0 -6.21261,1.5961 -8.18872,5.53044 -1.25212,2.49291 -1.04092,5.80656 0.56139,8.80844 2.23556,4.18825 7.72563,5.67657 11.80176,3.19938 z m -45.3245,-7.78203 c 3.79707,-1.49666 15.05957,-9.08836 19.17939,-12.92822 l 2.2007,-2.05114 v -6.85881 c 0,-4.93762 -0.16005,-6.95773 -0.57137,-7.21194 -1.25344,-0.77467 -8.6049,-0.74116 -12.18592,0.0555 -8.6286,1.91968 -14.50482,6.02024 -19.54342,13.63781 -3.19911,4.83657 -3.53538,6.70021 -1.86662,10.34525 1.21434,2.65248 2.98466,4.2472 5.85256,5.27208 2.37284,0.84796 4.30666,0.7753 6.93468,-0.26057 z m 173.02383,47.23198 c -1.57738,-0.22163 -3.24528,-0.598 -3.70643,-0.83639 -0.46114,-0.23839 -1.6199,-0.57449 -2.57503,-0.7469 -3.40173,-0.61407 -14.71069,-6.4988 -14.71069,-7.65487 0,-0.22277 -0.90243,-0.9339 -2.00541,-1.58028 -1.10297,-0.64639 -2.56534,-2.02136 -3.2497,-3.0555 -0.68435,-1.03414 -1.42446,-1.88025 -1.64469,-1.88025 -1.15508,0 -6.93937,-10.12174 -8.6825,-15.19322 -2.74956,-7.9996 -2.57024,-22.3502 0.3644,-29.16293 2.24197,-5.20468 3.79753,-8.32428 4.83865,-9.70363 0.61225,-0.81115 1.11318,-1.67268 1.11318,-1.9145 0,-0.54818 5.92732,-6.54047 9.29877,-9.4007 4.74218,-4.02311 12.64976,-7.64736 19.1944,-8.7973 8.75583,-1.53846 20.02692,-0.42915 26.17665,2.57632 6.17289,3.01679 9.53758,4.99745 10.91273,6.42392 0.77826,0.80729 2.28108,2.24998 3.33962,3.20597 6.95453,6.28086 12.41695,16.92992 13.60512,26.52335 0.6781,5.47511 0.21729,13.60769 -0.98416,17.36852 -0.51057,1.59824 -0.92831,3.1108 -0.92831,3.36123 0,1.18522 -5.0467,10.44345 -6.72697,12.34072 -1.04267,1.17733 -2.33838,2.76606 -2.87934,3.53051 -0.54097,0.76445 -1.88451,2.0737 -2.98566,2.90945 -1.10115,0.83575 -3.35348,2.57316 -5.00517,3.86092 -2.99307,2.33359 -3.7744,2.75526 -9.04282,4.88026 -6.99916,2.8231 -16.33483,3.98247 -23.71664,2.9453 z m 36.03715,-39.53103 c 6.5198,-3.43237 5.39268,-14.14896 -1.78572,-16.97842 -2.00472,-0.79019 -5.8735,-0.38837 -7.442,0.77293 -1.94201,1.43785 -3.88928,4.66233 -4.13567,6.84822 -0.40903,3.62896 1.95636,8.57673 4.6631,9.75396 2.36915,1.0304 6.33279,0.84968 8.70029,-0.39669 z m -46.79989,-7.20892 c 0.91207,-0.21209 3.16843,-1.30168 5.01416,-2.4213 1.84572,-1.11961 4.2826,-2.57169 5.4153,-3.22683 1.13269,-0.65514 2.73333,-1.8306 3.55696,-2.61212 0.82364,-0.78154 2.12298,-1.73704 2.88743,-2.12334 0.76445,-0.38631 2.41587,-1.71268 3.66982,-2.94751 2.68047,-2.6396 2.87713,-3.41118 2.67062,-10.47775 -0.14057,-4.81006 -0.18982,-5.01831 -1.36962,-5.79129 -0.91739,-0.60106 -2.1569,-0.79387 -4.95053,-0.77005 -7.54985,0.0644 -16.27453,3.33014 -20.58578,7.70555 -4.65422,4.72351 -5.47114,5.72352 -7.43124,9.09692 -2.46921,4.24959 -2.35262,5.24121 1.10619,9.40824 3.54341,4.26896 5.69814,5.16372 10.01669,4.15948 z"
         id="path966" />
      <path
         style="fill:#0a0a1d;stroke-width:0.463304"
         d="m 227.20086,416.52255 c -6.99312,-1.55342 -12.82956,-4.28828 -17.24181,-8.07921 -1.83849,-1.57959 -3.80071,-3.63814 -4.3605,-4.57453 -0.5598,-0.9364 -1.37924,-2.11951 -1.82099,-2.62915 -1.06592,-1.22972 -2.98644,-6.14605 -4.58329,-11.73278 -0.71269,-2.49343 -1.65906,-5.25181 -2.10305,-6.12974 -2.42134,-4.78791 -5.75657,-10.07656 -7.2745,-11.53512 -0.95008,-0.91293 -2.30922,-2.42157 -3.0203,-3.35254 -2.35471,-3.08286 -15.7645,-13.69225 -20.13029,-15.92645 -0.85137,-0.43568 -2.27765,-1.34769 -3.16951,-2.02668 -0.89186,-0.67898 -3.81067,-2.33885 -6.48625,-3.6886 -2.67558,-1.34975 -5.17742,-2.71054 -5.55964,-3.02396 -0.72264,-0.59258 -3.8771,-2.13831 -8.4679,-4.14938 -2.98596,-1.30806 -6.8967,-4.76414 -8.18712,-7.23532 -1.77793,-3.40476 -1.75887,-3.24835 -3.95147,-32.43125 -0.37333,-4.96893 -0.89921,-13.41264 -1.16864,-18.76379 -0.26942,-5.35116 -0.69464,-11.81424 -0.94493,-14.36241 -0.25029,-2.54817 -0.65961,-8.07307 -0.90959,-12.27755 -0.24998,-4.20448 -0.75957,-12.4397 -1.13242,-18.30049 -0.37286,-5.86079 -1.0949,-17.32755 -1.60453,-25.48169 -0.50964,-8.15414 -1.1539,-17.95301 -1.43169,-21.77527 -0.57221,-7.87313 -0.29694,-10.00923 1.91986,-14.89828 3.12535,-6.89279 12.7124,-12.88394 24.02521,-15.01385 1.65631,-0.31184 3.32879,-0.7275 3.71661,-0.92368 0.38782,-0.19618 1.63244,-1.99057 2.76582,-3.98754 1.13338,-1.99696 3.21367,-5.19368 4.62286,-7.10382 1.40919,-1.91014 3.1069,-4.30774 3.77268,-5.32799 0.66578,-1.02026 2.22943,-3.02061 3.47478,-4.44523 1.24534,-1.42462 2.88972,-3.44175 3.65417,-4.48253 0.76445,-1.04077 1.97095,-2.23698 2.6811,-2.65824 0.71015,-0.42126 1.78469,-1.53142 2.38786,-2.46702 0.60317,-0.9356 3.01953,-3.36899 5.36969,-5.40753 2.35016,-2.03853 5.13262,-4.46384 6.18326,-5.38957 5.91801,-5.21447 19.00351,-13.58756 27.62358,-17.675646 14.13444,-6.703292 25.72906,-10.441528 39.61245,-12.771503 9.95218,-1.670221 28.84112,-2.96011 34.28446,-2.341221 1.78372,0.202803 5.95345,0.592455 9.26607,0.865892 14.70808,1.214067 29.16523,4.817077 42.85558,10.680466 9.6839,4.147481 12.97407,5.741142 15.98397,7.742172 1.52891,1.01644 3.1968,1.98067 3.70643,2.14273 0.50964,0.16207 2.07329,1.13218 3.47478,2.15581 1.40149,1.02364 3.45564,2.43199 4.56477,3.12967 1.10914,0.69769 3.37139,2.46732 5.02723,3.93252 1.65585,1.4652 3.20436,2.664 3.44115,2.664 0.5195,0 13.69575,12.22289 14.96766,13.88468 0.49365,0.64497 1.90093,2.25476 3.1273,3.57729 1.22636,1.32254 2.23288,2.57346 2.2367,2.77982 0.004,0.20637 1.17702,1.62613 2.6071,3.15504 1.43008,1.5289 2.90686,3.50952 3.28173,4.40138 0.37486,0.89186 1.23347,2.35126 1.90802,3.24312 2.05647,2.719 4.05877,5.71448 4.87549,7.29383 1.06856,2.06638 2.31509,2.7664 6.33392,3.557 3.66057,0.72012 7.94459,2.12971 10.6354,3.49941 0.8934,0.45477 2.55214,1.29403 3.68608,1.86501 5.64785,2.84392 10.56636,10.08045 11.02168,16.216 0.22332,3.0093 -0.16551,10.9482 -1.49764,30.57803 -0.38908,5.73339 -1.12341,16.67893 -1.63184,24.32344 -0.50844,7.64451 -1.23948,17.86035 -1.62454,22.70187 -1.19236,14.99192 -2.50974,33.00805 -2.99819,41.00237 -0.84055,13.75709 -2.22488,29.39452 -2.71363,30.65336 -0.26342,0.67847 -1.43454,2.4901 -2.60248,4.02583 -1.695,2.22879 -2.98595,3.2876 -6.39728,5.24692 -2.35057,1.35007 -5.34147,2.89216 -6.64643,3.42687 -1.30496,0.53471 -4.16152,2.04882 -6.34791,3.3647 -2.18638,1.31587 -4.16305,2.39249 -4.3926,2.39249 -0.52131,0 -12.3459,7.76935 -16.57048,10.88763 -3.26723,2.41164 -10.54037,9.46833 -14.04027,13.62242 -3.11036,3.69174 -5.96267,9.06486 -7.5252,14.1758 -4.34602,14.21563 -7.26054,18.65255 -15.92989,24.25097 -1.78372,1.15188 -4.59829,2.4961 -6.2546,2.98716 -1.65631,0.49107 -4.05391,1.23308 -5.32799,1.64891 -2.08263,0.67972 -7.76615,0.76396 -56.29138,0.83426 -43.49413,0.063 -54.51464,-0.0417 -56.75468,-0.53931 z m 111.45623,-13.01407 c 1.38404,-0.40846 3.76736,-1.44183 5.29626,-2.29637 5.81737,-3.25147 8.20406,-6.83662 10.91156,-16.39076 1.8047,-6.36835 3.57585,-10.74131 4.60911,-11.3799 0.26451,-0.16348 1.02462,-1.37703 1.68915,-2.69678 1.4533,-2.88628 6.29823,-8.69628 10.69378,-12.82389 6.71154,-6.30242 9.00679,-8.33946 9.39654,-8.33946 0.2215,0 1.32855,-0.80128 2.46009,-1.78062 1.13153,-0.97934 3.01798,-2.38663 4.1921,-3.1273 1.17413,-0.74067 3.8574,-2.46254 5.96283,-3.82636 4.34048,-2.81162 6.71605,-4.12813 17.4955,-9.69585 4.20448,-2.17167 7.71486,-4.0047 7.80085,-4.07341 0.57705,-0.46111 1.11224,-5.13886 1.6924,-14.7924 0.36754,-6.1156 0.88182,-13.20415 1.14284,-15.75232 0.64884,-6.33421 1.86172,-22.51825 2.36105,-31.50464 0.22654,-4.07707 0.62689,-9.49772 0.88967,-12.04589 0.26277,-2.54817 0.7868,-9.74096 1.1645,-15.98397 0.3777,-6.24302 0.79336,-12.39337 0.92369,-13.66745 0.21817,-2.13292 0.65825,-8.64397 2.14948,-31.802 0.44662,-6.93584 0.43971,-9.05272 -0.0351,-10.74861 -0.67021,-2.39377 -1.02415,-2.75967 -4.88522,-5.05042 -3.80527,-2.25765 -13.45631,-5.44257 -16.51414,-5.44981 -0.60027,-0.001 -1.86704,-0.21801 -2.81506,-0.48129 -1.43408,-0.39829 -1.88544,-0.84444 -2.68662,-2.65565 -0.52963,-1.19731 -1.3598,-2.59934 -1.84483,-3.11563 -0.48502,-0.51629 -1.21291,-1.73101 -1.61752,-2.69939 -0.40462,-0.96837 -1.84255,-3.25888 -3.19542,-5.09002 -1.35286,-1.83112 -2.78611,-3.95478 -3.185,-4.71923 -0.39889,-0.76445 -1.48732,-2.11962 -2.41874,-3.01148 -0.93141,-0.89186 -2.39927,-2.78013 -3.26189,-4.19615 -0.86262,-1.41603 -2.11655,-2.86796 -2.78652,-3.22652 -0.66997,-0.35855 -1.6529,-1.28485 -2.18429,-2.05843 -1.35758,-1.97634 -9.12116,-9.45504 -10.64583,-10.25521 -0.69623,-0.36539 -1.73866,-1.30721 -2.31652,-2.09293 -0.57786,-0.78572 -1.88459,-1.84765 -2.90386,-2.35984 -1.01927,-0.51219 -2.3914,-1.43486 -3.04919,-2.05038 -1.38389,-1.29499 -8.28929,-5.72848 -8.9224,-5.72848 -0.23482,0 -1.49426,-0.7673 -2.79878,-1.70511 -1.30452,-0.93781 -4.56096,-2.71392 -7.23654,-3.94692 -2.67558,-1.23299 -5.42736,-2.55604 -6.11506,-2.9401 -1.36091,-0.76005 -2.64074,-1.25414 -10.33222,-3.9889 -19.67258,-6.994722 -46.02555,-8.796009 -69.72718,-4.766016 -10.12713,1.721916 -16.55182,3.277816 -20.1537,4.880716 -0.50964,0.2268 -2.90723,1.12256 -5.32799,1.99057 -5.70777,2.04665 -19.5313,9.01548 -22.38823,11.28654 -0.72124,0.57334 -1.5954,1.04243 -1.94258,1.04243 -0.34718,0 -1.55773,0.80189 -2.69012,1.78197 -1.1324,0.98008 -2.86509,2.27168 -3.85044,2.87023 -5.54379,3.36759 -21.87708,19.15994 -25.41946,24.57761 -0.76476,1.1696 -2.12017,3.1056 -3.01202,4.30222 -0.89186,1.19663 -2.35127,3.39715 -3.24313,4.89006 -0.89186,1.4929 -2.03854,3.38583 -2.54817,4.20649 -0.50963,0.82066 -1.76055,3.08384 -2.77982,5.02929 -1.47914,2.8232 -2.08701,3.56355 -3.01147,3.66784 -5.58428,0.62996 -15.02827,3.40452 -19.70113,5.78801 -1.26818,0.64687 -2.93125,1.83529 -3.6957,2.64094 l -1.38991,1.46481 0.0359,6.33872 c 0.0198,3.4863 0.37551,11.23816 0.79056,17.22636 0.41505,5.9882 0.87817,14.32766 1.02915,18.53214 0.25889,7.20972 0.72641,14.09207 2.32897,34.28446 0.37413,4.71412 0.8891,12.01115 1.14438,16.21563 1.08848,17.9276 2.85381,43.15473 3.57578,51.09921 0.29057,3.19732 1.10468,3.98138 6.88077,6.62676 2.02027,0.92525 4.29868,2.14735 5.06313,2.71577 0.76445,0.56841 3.20423,1.90496 5.42173,2.9701 2.2175,1.06514 4.61686,2.4289 5.33192,3.03057 0.71505,0.60168 2.02803,1.40164 2.91773,1.7777 0.8897,0.37605 3.34162,1.91142 5.44871,3.41192 2.10708,1.5005 5.15458,3.67297 6.7722,4.82771 2.81985,2.01296 10.60345,8.88978 13.35547,11.79958 3.77177,3.988 6.30655,7.06135 6.59356,7.99449 0.17678,0.57471 0.83735,1.65809 1.46794,2.40751 2.14158,2.54512 5.16445,9.5142 6.80599,15.69088 1.65225,6.21692 2.36904,7.58235 6.07919,11.58025 1.45405,1.56682 5.71222,4.25584 6.7393,4.25584 0.31269,0 1.2255,0.30063 2.02846,0.66807 0.80296,0.36744 1.98115,0.75602 2.61819,0.86352 0.63705,0.10749 24.94001,0.22383 54.0066,0.25853 47.24966,0.0564 53.11493,-0.0156 55.36477,-0.67956 z m -69.29561,-36.3541 c -12.93897,-2.33129 -20.54096,-4.82751 -30.52595,-10.02363 -7.2692,-3.78284 -14.80671,-9.85386 -15.54246,-12.51853 -0.58991,-2.1365 0.35754,-4.80145 1.99169,-5.60215 2.70778,-1.32676 4.08644,-1.2068 6.55281,0.57017 7.66107,5.51967 12.45358,8.33907 18.52846,10.90021 2.54817,1.0743 5.26483,2.22446 6.03702,2.55591 5.43427,2.33262 18.01483,4.41582 26.6865,4.41898 8.55005,0.003 21.21413,-2.07995 27.04264,-4.44814 6.35255,-2.58112 12.82991,-5.59979 14.82571,-6.90928 1.27409,-0.83595 3.4632,-2.26918 4.86469,-3.18496 1.40149,-0.91577 3.35423,-2.28697 4.33942,-3.04709 3.51373,-2.71105 6.60868,-2.24625 8.55664,1.28501 1.48027,2.68345 1.00105,3.72123 -3.79141,8.21054 -6.76466,6.33675 -18.64522,12.26297 -30.95561,15.44115 -10.32906,2.66666 -12.9497,3.01686 -23.55279,3.1474 -8.28994,0.10207 -10.81599,-0.0314 -15.05736,-0.79559 z M 196.39117,294.0166 c -7.25661,-0.83398 -17.95761,-5.07499 -21.98367,-8.71254 -1.28687,-1.16269 -2.89054,-2.45246 -3.56371,-2.86614 -1.6317,-1.00273 -4.72124,-4.81289 -7.66493,-9.45275 -4.1422,-6.52894 -4.7641,-8.20689 -6.7194,-18.12965 -0.65281,-3.31287 -0.18947,-11.42405 0.91678,-16.04888 1.05891,-4.42688 2.97455,-9.30443 4.33212,-11.0303 0.48888,-0.62152 1.28588,-1.9802 1.7711,-3.01929 1.00978,-2.16241 7.73126,-9.18603 11.86693,-12.40036 1.53676,-1.19441 3.61685,-2.47494 4.62242,-2.84562 1.00557,-0.37068 3.28771,-1.30766 5.07143,-2.08219 6.12563,-2.65985 16.12192,-4.02352 21.22262,-2.89514 1.0684,0.23636 3.71465,0.78631 5.88054,1.22211 12.03853,2.42233 24.98265,13.35094 30.32766,25.6054 3.03212,6.95169 3.70372,10.20024 3.70372,17.91485 0,5.83002 -0.16586,7.50932 -1.0296,10.42433 -1.96921,6.64586 -5.21951,13.36757 -7.9159,16.37033 -0.95328,1.06159 -2.07702,2.47921 -2.4972,3.15028 -1.14145,1.823 -7.07147,6.58297 -10.93035,8.77368 -8.47911,4.81364 -18.59204,7.03537 -27.41056,6.02188 z m 8.84493,-12.12749 c 7.32563,-0.96497 12.97415,-3.81753 18.70817,-9.44783 5.856,-5.75006 7.87949,-9.75623 10.44262,-20.67457 1.38294,-5.89098 0.84066,-8.80725 -2.25841,-12.14552 -1.80488,-1.94418 -3.42541,-2.62263 -6.26436,-2.62263 -4.38284,0 -6.45109,1.29217 -8.49432,5.30693 -0.98818,1.94168 -1.13153,2.72711 -0.93011,5.09634 0.13095,1.54048 0.57176,3.42634 0.97957,4.19079 1.52812,2.86451 0.68012,5.26987 -3.39286,9.62389 -2.39302,2.55815 -3.33073,3.21433 -5.73099,4.01036 -4.09874,1.35932 -6.80309,1.62622 -9.65907,0.95325 -5.42306,-1.27785 -8.98297,-3.96659 -10.95505,-8.27419 -0.96864,-2.11579 -1.09957,-2.92617 -0.86123,-5.3308 0.53062,-5.35346 0.86426,-5.94329 4.82742,-8.5341 6.19137,-4.04744 9.05323,-6.12693 12.04072,-8.74905 l 2.89565,-2.54151 v -7.34634 c 0,-4.85395 -0.17333,-7.45345 -0.51089,-7.66208 -0.28098,-0.17366 -2.14039,-0.49805 -4.13201,-0.72087 -2.91016,-0.32559 -4.47123,-0.23412 -7.95087,0.46586 -9.29115,1.86904 -15.39278,5.98923 -20.66152,13.95188 -3.52232,5.32329 -4.86586,10.57943 -4.85548,18.99544 0.006,5.06081 0.16104,6.22726 1.22729,9.24763 2.82089,7.99076 9.58042,15.57782 17.16673,19.26834 6.31152,3.07038 11.3051,3.86928 18.369,2.93878 z m 153.77461,12.08756 c -3.76543,-0.51724 -9.29757,-2.16423 -13.1189,-3.90567 -3.81903,-1.74039 -8.65636,-4.71464 -8.65636,-5.32239 0,-0.22277 -0.92005,-0.94422 -2.04455,-1.60323 -1.1245,-0.659 -2.48388,-1.90904 -3.02085,-2.77787 -0.53696,-0.86883 -1.24472,-1.6827 -1.5728,-1.80859 -1.66614,-0.63936 -7.36535,-10.7631 -9.06465,-16.1019 -1.89358,-5.94923 -2.34699,-14.04786 -1.1724,-20.94105 0.82644,-4.84997 4.05343,-12.99233 6.52927,-16.47464 0.84876,-1.19381 1.54321,-2.29992 1.54321,-2.45801 0,-0.49876 5.67233,-6.18217 8.60909,-8.62591 5.0168,-4.17459 12.0001,-7.42023 18.91151,-8.78955 5.53156,-1.09593 13.42384,-1.00978 18.87937,0.2061 6.62569,1.47666 14.85644,5.69609 19.08214,9.78229 1.48747,1.43837 3.01486,2.90657 3.3942,3.26268 2.02223,1.89837 5.82052,7.19179 7.34782,10.24017 7.72414,15.4168 6.87556,31.20383 -2.44676,45.51957 -1.12007,1.72001 -2.20125,3.1273 -2.40264,3.1273 -0.20138,0 -0.88834,0.78906 -1.52656,1.75348 -0.63822,0.96442 -2.12955,2.47595 -3.31407,3.35895 -1.18453,0.88301 -3.35079,2.54366 -4.81392,3.69033 -3.21079,2.51633 -7.7224,4.63991 -13.22721,6.22593 -7.15595,2.06174 -11.77643,2.48523 -17.91494,1.64201 z m 13.1555,-12.72607 c 8.40371,-2.22996 14.61431,-6.57152 19.75706,-13.8113 2.25668,-3.17688 4.2802,-8.27541 4.9102,-12.3719 0.17635,-1.14668 0.69871,-2.91882 1.16081,-3.93808 2.16999,-4.78639 -0.58,-11.85147 -5.3084,-13.63798 -2.3657,-0.89383 -6.48884,-0.61253 -8.23107,0.56155 -4.25162,2.86518 -5.63874,8.0365 -3.54564,13.21849 l 1.14985,2.84674 -1.12639,2.44368 c -1.46087,3.16933 -4.27599,6.03502 -7.96699,8.11009 -2.41443,1.35738 -3.55974,1.70016 -6.2546,1.87194 -2.8856,0.18394 -3.77242,0.0275 -7.07781,-1.24863 -7.2068,-2.78236 -10.51247,-8.37048 -8.78892,-14.85742 0.40715,-1.53239 0.50286,-2.65184 0.24058,-2.81393 -0.23955,-0.14805 -0.0658,-0.57306 0.38619,-0.94448 1.64839,-1.35464 5.99906,-4.12117 6.481,-4.12117 0.27231,0 1.50797,-0.90785 2.74591,-2.01743 1.23794,-1.10959 2.87626,-2.3447 3.64071,-2.74468 0.76445,-0.39998 2.62145,-1.98098 4.12667,-3.51334 l 2.73674,-2.7861 -0.2861,-6.32977 c -0.16653,-3.6842 -0.50996,-6.59949 -0.82169,-6.9751 -2.25234,-2.71391 -13.07967,-1.63843 -20.9443,2.08041 -3.70109,1.75008 -5.09464,2.89129 -10.24138,8.38691 -3.043,3.24927 -5.30812,7.90858 -6.306,12.97134 -2.06819,10.49298 -0.61664,18.23502 4.99891,26.66227 4.57278,6.86237 13.43095,12.53449 21.26574,13.61703 4.02413,0.55602 9.79802,0.26984 13.29892,-0.65914 z"
         id="path964" />
    </g>
    <path
       style="fill:#ffffff;stroke-width:4.43326"
       d="m 105.56701,252.07488 c -6.743514,-1.47579 -11.360189,-6.09274 -12.362956,-12.3637 -0.439939,-2.75123 0.784386,-5.88477 4.351805,-11.13803 6.092101,-8.97102 13.249701,-14.53376 22.833291,-17.74559 4.8759,-1.6341 6.7767,-1.95325 13.0823,-2.19653 10.57165,-0.40787 9.92374,-1.12402 9.92374,10.96879 v 9.89073 l -3.30878,3.02404 c -7.24653,6.62292 -25.46142,18.45213 -29.44466,19.12211 -1.17828,0.19819 -2.5382,0.43561 -3.02205,0.52761 -0.48385,0.092 -1.40756,0.0518 -2.05269,-0.0894 z"
       id="path1296" />
    <path
       style="fill:#ffffff;stroke-width:4.43326"
       d="m 168.20858,263.24736 c -5.05468,-1.79069 -9.03038,-8.88298 -8.13144,-14.50577 0.80319,-5.02392 4.80241,-9.75908 9.25491,-10.95801 5.16228,-1.39006 9.87111,0.5725 13.17738,5.49211 3.6558,5.43968 2.92572,12.47901 -1.78259,17.18731 -3.60486,3.60487 -7.65763,4.5063 -12.51826,2.78436 z"
       id="path1335" />
    <path
       style="fill:#ffffff;stroke-width:4.43326"
       d="m 183.86254,478.28845 c -8.49828,-0.38662 -11.19265,-1.11356 -17.42594,-4.70153 -3.55484,-2.04621 -8.56775,-7.78731 -10.49933,-12.02449 -0.73523,-1.61283 -2.14773,-5.9251 -3.13889,-9.58282 -3.06287,-11.303 -9.96387,-24.04754 -17.7316,-32.74612 -9.81346,-10.98946 -27.76356,-25.61638 -39.768103,-32.40565 -2.416563,-1.36671 -4.789628,-2.83552 -5.273477,-3.26403 -0.921573,-0.81616 -10.072054,-5.85196 -23.459335,-12.91041 -5.583424,-2.94386 -8.134552,-4.62139 -8.653702,-5.69036 -0.804364,-1.65626 -1.91625,-15.45097 -5.119099,-63.51058 -1.139333,-17.09599 -2.718889,-39.52898 -3.510123,-49.85109 -0.791236,-10.3221 -1.847877,-26.68499 -2.348092,-36.36197 -0.500214,-9.67697 -1.172554,-21.68522 -1.494087,-26.68499 -1.262573,-19.63273 -1.659269,-31.64812 -1.110502,-33.63559 0.804054,-2.91204 4.834388,-6.31446 10.053493,-8.48718 5.729516,-2.38521 17.028469,-5.63651 22.801047,-6.56107 l 4.460859,-0.71447 1.318755,-2.71894 c 3.013507,-6.21311 10.245914,-17.79932 17.475466,-27.99544 8.09994,-11.423679 25.59387,-28.192056 41.54627,-39.823163 11.81978,-8.617967 32.99253,-19.245387 48.91419,-24.551932 13.19844,-4.398919 18.46784,-5.671107 31.74525,-7.664241 16.08212,-2.414163 23.0648,-2.866799 38.33952,-2.485273 22.79007,0.569242 40.75585,3.446385 57.76861,9.251397 13.30921,4.541304 28.65427,11.566864 37.2417,17.050682 1.29026,0.823945 4.13136,2.472202 6.31355,3.662793 2.18219,1.19059 5.61312,3.422165 7.62428,4.959056 2.01117,1.53689 5.1742,3.761766 7.02895,4.944168 1.85475,1.182402 3.37228,2.392928 3.37228,2.690055 0,0.297129 1.78144,1.927966 3.95876,3.624082 5.34378,4.162767 19.4335,18.490027 23.25114,23.643126 1.69932,2.29376 3.52804,4.53106 4.06382,4.97177 1.30111,1.07025 11.01969,15.77889 15.73589,23.81558 3.55889,6.06456 3.91055,6.46476 6.09493,6.93618 13.68077,2.95256 19.7371,4.74196 25.22003,7.45149 3.24163,1.60194 6.67255,3.72492 7.62428,4.71773 1.63214,1.7026 1.74242,2.12776 1.9418,7.48587 0.21946,5.89794 -0.35225,16.8362 -2.28944,43.80216 -0.62566,8.70928 -1.66008,23.75258 -2.29871,33.42956 -0.63864,9.67697 -1.56112,22.87285 -2.04995,29.32417 -0.48884,6.45131 -1.55463,20.96678 -2.36842,32.25658 -0.8138,11.28981 -1.72802,23.03414 -2.03161,26.09851 -0.30359,3.06438 -0.71006,8.60665 -0.90328,12.31615 -0.57868,11.11026 -2.04033,27.45681 -2.58263,28.88315 -0.35766,0.94071 -3.42243,2.87052 -10.39849,6.54765 -18.55687,9.78144 -22.79606,12.2171 -31.8845,18.31943 -12.44361,8.35512 -14.61534,9.99595 -20.99101,15.85954 -11.84871,10.89705 -21.807,23.15703 -26.77861,32.96805 -0.80403,1.58667 -2.6691,7.06503 -4.14459,12.17413 -4.22432,14.62727 -7.79652,19.43409 -18.37983,24.73228 l -6.05499,3.03124 -71.6445,-0.10752 c -39.40448,-0.0591 -75.20739,-0.26961 -79.56203,-0.46772 z m 94.13059,-51.57259 c 20.20475,-3.59439 34.40774,-8.68267 49.27462,-17.65286 8.8392,-5.33328 17.87773,-14.32946 17.87773,-17.79396 0,-1.9819 -2.34532,-6.16238 -4.19684,-7.48078 -1.40731,-1.0021 -2.35773,-1.1959 -4.85087,-0.98915 -2.7887,0.23126 -4.06789,0.90479 -12.7149,6.69471 -14.42967,9.66193 -27.41544,15.26774 -42.50919,18.35075 -12.33666,2.51985 -19.14162,3.18031 -28.39258,2.75567 -14.34392,-0.65843 -26.20146,-3.07761 -38.12142,-7.77758 -10.88041,-4.29008 -18.30572,-8.41731 -31.26731,-17.37939 -3.37459,-2.33331 -4.42319,-2.76252 -6.74456,-2.76066 -4.7791,0.004 -8.89968,3.74526 -8.90461,8.08531 -0.007,6.26012 10.21822,14.91818 27.85577,23.58622 12.80516,6.29315 26.15153,10.33254 42.69174,12.921 9.90835,1.55062 29.69751,1.27394 40.00242,-0.55928 z M 386.19931,319.57128 c 11.2889,-1.92918 20.12566,-5.79094 29.07669,-12.70682 9.08884,-7.02235 13.96516,-12.85042 19.49482,-23.29974 4.5642,-8.62492 6.04565,-14.71165 6.40303,-26.30771 0.32895,-10.67373 -0.2663,-15.88037 -2.62103,-22.92609 -1.85447,-5.54886 -5.3511,-12.59309 -8.87853,-17.88645 -2.90565,-4.36031 -12.25281,-13.9829 -16.34578,-16.82744 -3.86332,-2.68494 -14.43792,-7.9374 -18.18191,-9.03106 -12.82872,-3.74739 -30.36201,-3.46457 -41.88543,0.67564 -10.10568,3.63084 -16.57344,7.75408 -25.52415,16.27185 -5.92911,5.64231 -9.17203,10.3611 -13.66165,19.87907 -3.47765,7.37264 -4.46414,11.05762 -5.32408,19.888 -1.16089,11.92063 0.50853,23.64287 4.69638,32.97678 6.84063,15.24648 17.22601,26.2628 31.30615,33.20807 14.38868,7.09747 25.75742,8.76687 41.44549,6.0859 z m -230.48797,-1.67884 c 22.98671,-7.5533 37.24625,-21.69897 44.88476,-44.52633 2.44859,-7.31749 3.16724,-14.34317 2.50647,-24.50361 -0.55053,-8.46529 -2.08751,-14.39452 -5.68182,-21.91888 -3.80343,-7.96213 -6.87953,-12.37526 -13.13726,-18.84738 -8.64012,-8.93613 -18.92284,-15.02573 -30.75542,-18.21386 -5.2841,-1.42373 -6.65507,-1.54591 -17.46392,-1.55636 -13.68437,-0.0133 -16.13841,0.48252 -27.41044,5.53749 -16.635332,7.46016 -31.796819,25.18153 -36.168278,42.27498 -3.411053,13.33803 -2.800679,28.18733 1.708868,41.57372 1.589636,4.71876 6.758218,13.28225 11.813148,19.57244 7.972668,9.92093 21.088942,17.89661 35.872452,21.81317 4.9686,1.31631 6.22969,1.41099 16.23694,1.219 10.71584,-0.20559 10.9333,-0.23555 17.5945,-2.42438 z m 99.06111,-103.84933 c 8.57742,-2.02185 15.4964,-7.64071 19.40189,-15.75617 3.09114,-6.42328 3.74757,-9.41041 3.37617,-15.36356 -0.27424,-4.3956 -0.63387,-5.63773 -3.15296,-10.89007 -2.5793,-5.37787 -3.34791,-6.40203 -8.27455,-11.02585 l -5.43113,-5.0973 -0.01,-5.23114 c -0.0113,-5.89368 -1.18464,-11.10901 -4.02796,-17.90413 -2.79734,-6.68521 -4.86811,-9.58478 -11.72032,-16.41117 -5.63449,-5.61325 -6.82776,-6.49861 -12.3929,-9.19505 -7.17154,-3.47478 -12.09195,-5.2022 -18.08595,-6.34951 -8.5834,-1.64293 -21.86617,-0.6986 -29.90236,2.12589 -1.82793,0.64246 -5.92271,2.62568 -9.09949,4.40715 l -5.77598,3.23902 -3.27835,-0.60604 c -4.17361,-0.77153 -10.80191,-0.77636 -14.83865,-0.0108 -6.24015,1.18342 -12.28485,5.24229 -16.66184,11.188 -3.80774,5.17245 -5.41471,9.01444 -6.18197,14.78011 -0.92218,6.92977 -0.0518,11.94819 3.15805,18.20862 2.81218,5.4848 6.2839,9.17097 11.56714,12.28163 5.6164,3.30681 9.20221,4.23393 16.37546,4.23393 6.08637,0 6.21954,-0.03 11.43643,-2.5796 14.62441,-7.14716 21.0342,-21.91367 16.42153,-37.831 -2.01682,-6.95963 -1.95803,-7.65013 0.74326,-8.73097 14.75656,-5.9044 32.66414,-2.58947 42.70421,7.90513 7.4024,7.7375 9.96408,12.89259 11.02675,22.1901 l 0.30329,2.65354 -3.63618,1.38342 c -7.45508,2.83635 -13.95105,7.88641 -17.13671,13.32234 -2.0082,3.42672 -4.97543,12.54814 -4.96502,15.26267 0.0268,6.98602 3.71175,15.54127 9.19975,21.35884 7.49353,7.94354 17.97062,11.00841 28.85842,8.44197 z m 62.84848,-31.1257 c 10.44438,-3.09884 17.93562,-11.10602 20.76731,-22.19756 1.1484,-4.4982 1.13002,-8.71001 -0.061,-13.98322 -1.42732,-6.31947 -2.86404,-8.84332 -8.26483,-14.51862 l -4.91367,-5.16343 0.99178,-3.41156 c 0.80691,-2.7757 0.92836,-4.88749 0.65159,-11.33027 -0.46625,-10.85322 -1.61129,-16.080684 -5.07465,-23.167275 -1.57645,-3.225658 -2.6263,-5.952134 -2.333,-6.058835 0.85755,-0.311971 12.37937,5.397504 16.45362,8.153355 13.57847,9.184575 21.46038,22.551975 23.36046,39.618405 0.8505,7.6391 1.50769,9.88995 3.29898,11.29899 4.08175,3.2107 9.55675,3.03615 13.23389,-0.42191 2.89083,-2.71861 3.56318,-6.16396 2.83516,-14.52852 -0.81608,-9.37637 -2.23395,-14.15661 -7.02754,-23.69264 -3.54419,-7.050599 -6.53978,-11.250002 -12.29204,-17.231748 -8.08744,-8.410092 -17.77803,-14.995999 -29.69854,-20.183682 -7.18249,-3.125743 -19.61784,-5.984342 -26.03283,-5.984342 -3.0659,0 -3.79604,-0.272332 -7.88268,-2.940121 -12.31711,-8.040696 -24.84032,-12.283679 -36.30577,-12.300743 -4.94447,-0.0074 -5.2538,0.06925 -6.89118,1.706631 -1.66377,1.663768 -1.71408,1.884342 -1.70536,7.477664 0.005,3.16983 0.20825,6.076712 0.4518,6.45974 0.67682,1.064416 2.96078,1.769174 10.09969,3.116439 12.67645,2.392319 19.44547,5.530462 29.75673,13.79532 3.38686,2.714693 5.66067,5.137379 7.59188,8.08894 6.86012,10.484679 9.07622,17.438572 9.20149,28.873342 0.08,7.30659 -0.24814,8.13698 -3.41919,8.65158 -3.45481,0.56063 -13.13295,5.56841 -15.29861,7.91598 -5.2186,5.65695 -7.22158,8.5604 -8.49462,12.31346 -1.61684,4.76668 -2.17266,13.13441 -1.18762,17.87935 2.0986,10.1089 10.26308,18.57429 20.84732,21.61569 4.61438,1.32595 13.12906,1.3994 17.34143,0.14959 z m -43.56531,-59.0841 c 2.84854,-1.8052 4.8118,-4.62457 4.81504,-6.91471 0.004,-2.4751 -2.24322,-9.11223 -5.23231,-15.45697 -2.95967,-6.282326 -9.9968,-15.693382 -15.15033,-20.261215 -9.80145,-8.687509 -23.39744,-15.402602 -36.34284,-17.949815 -7.12536,-1.402026 -23.65586,-1.400638 -30.95159,0.0026 -14.50923,2.79066 -29.96891,10.401123 -42.29105,20.81897 -5.42826,4.589359 -8.05613,8.445075 -7.62405,11.186275 0.17405,1.104172 1.07303,2.951594 1.99775,4.105383 2.00567,2.502512 7.41878,5.909942 9.38866,5.909942 0.95794,0 3.10923,-1.60775 6.7705,-5.05989 11.89169,-11.2124 25.43482,-17.786273 40.45057,-19.634818 14.36355,-1.768254 29.703,2.423415 41.55747,11.356027 7.54238,5.683353 9.91917,8.810451 15.79857,20.785801 3.30351,6.7287 5.83025,11.13884 6.83743,11.93394 2.18724,1.72669 6.51792,1.37007 9.97618,-0.82152 z"
       id="path1374" />
    <path
       style="fill:#ffffff;stroke-width:4.43326"
       d="m 341.91982,251.59728 c -2.86464,-0.9945 -8.76834,-7.03603 -10.33383,-10.5751 -0.91769,-2.07458 -0.98305,-2.78458 -0.40816,-4.43372 1.49376,-4.285 5.09082,-9.30861 10.71171,-14.95984 4.94213,-4.96881 6.70098,-6.32038 10.88022,-8.36081 7.05177,-3.4429 13.01202,-4.88067 20.65465,-4.98248 5.81463,-0.0774 6.38614,0.0163 7.62429,1.25048 1.23263,1.22871 1.35377,1.93686 1.53192,8.95521 0.17223,6.78462 0.0581,7.90054 -1.03965,10.16825 -1.17238,2.42182 -4.70079,5.83166 -8.53753,8.25064 -0.9677,0.61011 -2.94708,2.09445 -4.39863,3.29853 -3.14089,2.60542 -12.59301,8.39854 -16.71478,10.24434 -3.95113,1.76939 -7.12182,2.13335 -9.97021,1.1445 z"
       id="path1413" />
    <path
       style="fill:#ffffff;stroke-width:4.43326"
       d="m 404.54742,262.70474 c -2.47467,-1.26853 -5.31582,-5.77469 -6.12466,-9.71392 -0.79725,-3.8828 -0.085,-6.90306 2.45464,-10.40896 2.17637,-3.00439 4.57683,-4.52686 7.93033,-5.02975 12.63721,-1.89507 19.77535,16.63489 9.23021,23.96074 -2.10538,1.46263 -3.14589,1.74907 -7.0378,1.93742 -3.42891,0.16595 -5.03708,-0.0199 -6.45272,-0.74553 z"
       id="path1452" />
    <path
       style="fill:#ffffff;stroke-width:4.43326"
       d="m 302.82477,163.98862 c -6.43992,-4.08407 -7.2147,-14.71077 -1.39612,-19.14882 2.2605,-1.72417 6.27731,-3.20406 8.69665,-3.20406 2.64457,0 6.50151,2.54452 8.55409,5.64337 3.17528,4.79379 3.14854,8.71379 -0.0919,13.47777 -2.46114,3.61822 -4.99023,4.92468 -9.53334,4.92468 -2.91679,0 -4.04207,-0.30582 -6.22933,-1.69294 z"
       id="path1491" />
    <path
       style="fill:#ffffff;stroke-width:4.43326"
       d="m 242.94519,195.92691 c -2.84847,-1.01644 -3.71139,-1.76589 -5.45085,-4.73405 -3.12931,-5.33977 -2.30037,-11.21694 2.14905,-15.23673 2.86765,-2.59074 4.48368,-3.2396 8.0374,-3.22712 3.48453,0.0122 6.76439,1.82266 9.28206,5.12354 7.14358,9.36586 -2.73327,22.10107 -14.01766,18.07436 z"
       id="path1530" />
    <path
       style="fill:#ffffff;stroke-width:4.43326"
       d="m 153.63365,151.09987 c -0.98144,-0.59851 -2.50855,-1.94875 -3.39357,-3.00054 -4.85563,-5.77058 -4.68515,-10.63257 0.57707,-16.45722 3.20315,-3.5455 9.22153,-4.60338 13.56818,-2.38493 4.46278,2.27771 6.18981,5.64457 5.89455,11.49151 -0.25644,5.0783 -2.12309,8.40961 -5.74858,10.2592 -3.05548,1.55879 -8.4181,1.60405 -10.89765,0.092 z"
       id="path1569" />
  </g>
</svg>
